<?xml version="1.0" standalone="no"?>
<!DOCTYPE svg PUBLIC "-//W3C//DTD SVG 20010904//EN"
 "http://www.w3.org/TR/2001/REC-SVG-20010904/DTD/svg10.dtd">
<svg version="1.0" xmlns="http://www.w3.org/2000/svg"
 width="193.000000pt" height="193.000000pt" viewBox="0 0 193.000000 193.000000"
 preserveAspectRatio="xMidYMid meet">
<metadata>
Created by potrace 1.14, written by Peter Selinger 2001-2017
</metadata>
<g transform="translate(0.000000,193.000000) scale(0.100000,-0.100000)"
fill="#000000" stroke="none">
<path d="M1397 1273 c-2 -5 -3 -107 -2 -228 1 -121 -2 -228 -7 -237 -8 -16
-24 -18 -124 -18 -100 0 -116 2 -121 18 -10 23 -9 179 0 189 4 4 54 7 110 8
l102 1 0 49 0 50 -100 1 c-183 3 -222 -36 -220 -213 2 -113 14 -146 64 -180
31 -21 45 -23 160 -23 140 0 177 11 215 63 20 27 21 42 22 278 l1 249 -48 0
c-26 0 -49 -3 -52 -7z"/>
<path d="M1597 1147 c-40 -15 -49 -55 -19 -85 16 -16 36 -18 170 -17 84 0 156
5 161 10 21 21 22 61 4 77 -15 14 -45 18 -156 20 -76 2 -148 -1 -160 -5z"/>
<path d="M577 1091 c-68 -31 -81 -61 -83 -182 -2 -124 10 -159 66 -197 33 -22
42 -23 172 -20 120 3 140 6 165 24 45 34 57 69 58 178 1 112 -15 161 -63 192
-39 25 -263 29 -315 5z m270 -95 c4 -3 7 -47 7 -97 0 -68 -4 -93 -14 -100 -8
-5 -63 -9 -122 -9 -92 0 -109 2 -116 18 -14 26 -9 167 6 185 10 12 34 14 122
13 61 -2 113 -6 117 -10z"/>
<path d="M210 1025 c-63 -30 -121 -55 -128 -55 -16 0 -33 -45 -25 -65 3 -9 64
-45 135 -81 134 -67 159 -71 171 -25 7 29 -2 37 -93 80 l-85 39 88 42 c72 35
87 47 87 66 0 17 -23 54 -33 54 -1 0 -54 -25 -117 -55z"/>
<path d="M1577 952 c-22 -24 -21 -55 1 -75 28 -25 163 -24 185 1 22 24 21 55
-1 75 -28 25 -163 24 -185 -1z"/>
<path d="M1577 782 c-10 -10 -17 -28 -17 -40 0 -41 34 -50 188 -50 128 0 146
2 163 19 24 24 24 51 1 72 -16 14 -43 17 -169 17 -133 0 -152 -2 -166 -18z"/>
<path d="M524 652 c-6 -4 -16 -17 -23 -30 -18 -33 9 -72 48 -72 31 0 45 12 55
47 12 39 -45 78 -80 55z"/>
<path d="M851 646 c-37 -44 -9 -101 45 -94 50 6 63 71 20 100 -18 12 -53 9
-65 -6z"/>
</g>
</svg>
