<svg width="240" height="126" viewBox="0 0 240 126" fill="none" xmlns="http://www.w3.org/2000/svg">
<path d="M1.04031 110.919C1.04031 109.465 1.29759 108.044 1.81216 106.657C2.34909 105.248 3.12093 103.972 4.12769 102.831C5.13444 101.668 6.36492 100.751 7.81912 100.08C9.27332 99.386 10.9289 99.0393 12.7858 99.0393C14.9783 99.0393 16.8687 99.5203 18.4571 100.482C20.0679 101.444 21.2649 102.697 22.0479 104.241L18.4907 106.691C18.088 105.796 17.5623 105.091 16.9135 104.576C16.2647 104.039 15.5711 103.67 14.8328 103.469C14.0945 103.245 13.3674 103.133 12.6515 103.133C11.4882 103.133 10.4702 103.368 9.59771 103.838C8.74757 104.308 8.03165 104.923 7.44997 105.684C6.86829 106.445 6.43203 107.295 6.14119 108.234C5.87273 109.174 5.73849 110.114 5.73849 111.053C5.73849 112.105 5.90629 113.123 6.24187 114.107C6.57745 115.069 7.04727 115.93 7.65132 116.691C8.27775 117.429 9.01603 118.022 9.86618 118.47C10.7387 118.895 11.6895 119.107 12.7186 119.107C13.4569 119.107 14.2064 118.984 14.9671 118.738C15.7277 118.492 16.4324 118.1 17.0812 117.564C17.73 117.027 18.2334 116.333 18.5914 115.483L22.3835 117.664C21.9137 118.85 21.1418 119.857 20.0679 120.684C19.0164 121.512 17.8307 122.139 16.5108 122.564C15.1908 122.989 13.882 123.201 12.5844 123.201C10.8841 123.201 9.32925 122.855 7.91979 122.161C6.51034 121.445 5.29105 120.505 4.26192 119.342C3.25517 118.156 2.46095 116.836 1.87927 115.382C1.31997 113.906 1.04031 112.418 1.04031 110.919ZM43.7521 123.168C42.007 123.168 40.4186 122.832 38.9868 122.161C37.5773 121.49 36.358 120.584 35.3289 119.443C34.3222 118.279 33.5391 116.982 32.9798 115.55C32.4205 114.096 32.1409 112.608 32.1409 111.087C32.1409 109.498 32.4317 107.988 33.0134 106.556C33.6174 105.102 34.434 103.816 35.4631 102.697C36.5146 101.556 37.7451 100.661 39.1546 100.012C40.5864 99.3413 42.1525 99.0057 43.8528 99.0057C45.5754 99.0057 47.1415 99.3525 48.5509 100.046C49.9828 100.74 51.202 101.668 52.2088 102.831C53.2156 103.995 53.9986 105.292 54.5579 106.724C55.1172 108.156 55.3969 109.633 55.3969 111.154C55.3969 112.72 55.106 114.23 54.5243 115.684C53.9427 117.116 53.1261 118.402 52.0746 119.543C51.0454 120.662 49.815 121.546 48.3831 122.195C46.9737 122.843 45.43 123.168 43.7521 123.168ZM36.839 111.087C36.839 112.116 36.9956 113.111 37.3089 114.073C37.6221 115.035 38.0695 115.897 38.6512 116.657C39.2552 117.396 39.9823 117.989 40.8325 118.436C41.705 118.861 42.6894 119.074 43.7856 119.074C44.9042 119.074 45.8998 118.85 46.7723 118.402C47.6449 117.933 48.372 117.317 48.9536 116.557C49.5353 115.774 49.9716 114.912 50.2624 113.973C50.5756 113.011 50.7322 112.049 50.7322 111.087C50.7322 110.058 50.5644 109.073 50.2289 108.134C49.9156 107.172 49.457 106.321 48.853 105.583C48.2713 104.823 47.5442 104.23 46.6717 103.805C45.8215 103.357 44.8595 103.133 43.7856 103.133C42.6446 103.133 41.6379 103.368 40.7654 103.838C39.9152 104.286 39.1993 104.89 38.6176 105.65C38.036 106.411 37.5885 107.261 37.2753 108.201C36.9845 109.14 36.839 110.102 36.839 111.087ZM67.3389 123V99.1735H75.997C78.5922 99.1735 80.7623 99.7104 82.5074 100.784C84.2524 101.836 85.5612 103.268 86.4337 105.08C87.3062 106.87 87.7425 108.861 87.7425 111.053C87.7425 113.469 87.2615 115.572 86.2995 117.362C85.3374 119.152 83.9727 120.539 82.2053 121.523C80.4603 122.508 78.3909 123 75.997 123H67.3389ZM83.0778 111.053C83.0778 109.51 82.7982 108.156 82.2389 106.993C81.6796 105.807 80.8742 104.89 79.8227 104.241C78.7712 103.57 77.496 103.234 75.997 103.234H71.97V118.939H75.997C77.5183 118.939 78.8047 118.604 79.8562 117.933C80.9077 117.239 81.7019 116.299 82.2389 115.114C82.7982 113.906 83.0778 112.552 83.0778 111.053ZM116.295 118.939V123H99.7504V99.1735H115.993V103.234H104.381V108.973H114.415V112.731H104.381V118.939H116.295ZM128.295 123V99.2071H132.926V110.516L142.926 99.1735H148.027L138.899 109.744L148.598 123H143.362L135.946 112.731L132.926 115.886V123H128.295ZM165.61 99.1735H170.308L179.067 123H174.301L172.087 117.06H163.764L161.583 123H156.818L165.61 99.1735ZM171.248 113.805L167.959 103.972L164.536 113.805H171.248ZM190.07 123V99.1735H200.607C201.703 99.1735 202.71 99.3972 203.627 99.8447C204.567 100.292 205.372 100.896 206.044 101.657C206.737 102.417 207.263 103.268 207.621 104.207C208.001 105.147 208.191 106.109 208.191 107.093C208.191 108.1 208.012 109.073 207.654 110.013C207.319 110.93 206.827 111.736 206.178 112.429C205.529 113.123 204.768 113.66 203.896 114.04L209.332 123H204.231L199.332 115.013H194.701V123H190.07ZM194.701 110.953H200.506C201.088 110.953 201.603 110.785 202.05 110.449C202.498 110.091 202.856 109.621 203.124 109.04C203.392 108.458 203.527 107.809 203.527 107.093C203.527 106.333 203.37 105.673 203.057 105.113C202.744 104.532 202.341 104.073 201.849 103.737C201.379 103.402 200.864 103.234 200.305 103.234H194.701V110.953ZM238.334 103.234H230.717V123H226.119V103.234H218.501V99.1735H238.334V103.234Z" fill="white"/>
<path d="M28.4224 58.6941C28.0635 58.5402 27.7558 58.2967 27.4994 57.9634C27.243 57.6044 27.0379 57.207 26.8841 56.7712C26.7302 56.3353 26.6149 55.8866 26.538 55.4251C26.4867 54.938 26.461 54.4893 26.461 54.0791C26.461 53.4125 26.5251 52.8613 26.6533 52.4254C26.8072 51.9639 27.0251 51.5922 27.3071 51.3101C27.5891 51.0025 27.9481 50.7461 28.3839 50.541C28.8198 50.3359 29.3326 50.1564 29.9223 50.0026C33.1527 48.6694 36.3704 47.2208 39.5752 45.6568C42.7801 44.0929 46.1644 42.5289 49.7281 40.9649C49.9076 40.8111 50.1384 40.6445 50.4204 40.465C50.728 40.2855 51.0485 40.1189 51.3818 39.965C51.7151 39.8112 52.0613 39.683 52.4202 39.5804C52.7791 39.4523 53.1124 39.3882 53.4201 39.3882C53.9072 39.3882 54.3816 39.542 54.8431 39.8497C55.3045 40.1317 55.7148 40.5034 56.0737 40.9649C56.4326 41.4264 56.7275 41.952 56.9582 42.5417C57.189 43.1058 57.3044 43.657 57.3044 44.1954C57.3044 44.862 57.2146 45.4004 57.0352 45.8106C56.8813 46.2209 56.6634 46.567 56.3814 46.849C56.0993 47.131 55.766 47.3746 55.3815 47.5797C54.9969 47.7592 54.5995 47.9387 54.1893 48.1181V48.0797L39.2676 55.0406L53.497 61.8092C53.779 61.8605 54.138 61.963 54.5738 62.1168C55.0353 62.2707 55.4712 62.5142 55.8814 62.8475C56.3173 63.1552 56.6762 63.5654 56.9582 64.0782C57.2659 64.5653 57.4197 65.1807 57.4197 65.9242C57.4197 66.437 57.33 66.9754 57.1505 67.5394C56.9967 68.0778 56.7531 68.5778 56.4198 69.0393C56.1122 69.4751 55.7019 69.8341 55.1892 70.1161C54.702 70.3981 54.1252 70.5391 53.4586 70.5391C52.715 70.5391 52.0484 70.411 51.4587 70.1546C50.8947 69.8982 50.3819 69.629 49.9204 69.3469C49.3564 69.0393 48.5231 68.6162 47.4207 68.0778C46.3438 67.5138 45.126 66.8856 43.7671 66.1934C42.4339 65.5011 41.011 64.7833 39.4983 64.0397C38.0113 63.2962 36.5627 62.5783 35.1525 61.8861C33.7424 61.1938 32.4477 60.5657 31.2683 60.0017C30.0889 59.4376 29.1403 59.0017 28.4224 58.6941ZM116.453 63.9628C116.453 65.6806 116.235 67.2318 115.799 68.6162C115.363 69.9751 114.786 71.1801 114.068 72.2313C113.351 73.2568 112.517 74.1414 111.569 74.8849C110.62 75.6028 109.62 76.1925 108.569 76.654C107.543 77.1155 106.492 77.4616 105.415 77.6923C104.364 77.8974 103.364 78 102.416 78H84.3788C82.9943 78 81.4816 77.7564 79.8408 77.2693C78.1999 76.7822 76.6744 75.9874 75.2643 74.8849C73.8798 73.7568 72.7132 72.3082 71.7646 70.5391C70.8416 68.7444 70.3801 66.5523 70.3801 63.9628V50.4256C70.3801 47.8617 70.8416 45.6953 71.7646 43.9262C72.7132 42.1315 73.8798 40.6829 75.2643 39.5804C76.6744 38.4523 78.1999 37.6447 79.8408 37.1576C81.4816 36.6705 82.9943 36.4269 84.3788 36.4269H102.416C104.979 36.4269 107.159 36.8884 108.953 37.8114C110.748 38.7344 112.197 39.9009 113.299 41.3111C114.402 42.6955 115.196 44.2082 115.684 45.8491C116.196 47.49 116.453 49.0155 116.453 50.4256V63.9628ZM106.454 50.5025C106.454 49.118 106.108 48.0925 105.415 47.4259C104.723 46.7593 103.723 46.426 102.416 46.426H84.4557C83.1225 46.426 82.1098 46.7721 81.4175 47.4643C80.7253 48.1309 80.3792 49.118 80.3792 50.4256V63.9628C80.3792 65.2704 80.7253 66.2703 81.4175 66.9626C82.1098 67.6548 83.1225 68.0009 84.4557 68.0009H102.416C103.774 68.0009 104.787 67.6548 105.454 66.9626C106.12 66.2703 106.454 65.2704 106.454 63.9628V50.5025ZM170.602 63.9628C170.602 65.6806 170.384 67.2318 169.948 68.6162C169.512 69.9751 168.935 71.1801 168.217 72.2313C167.499 73.2568 166.666 74.1414 165.717 74.8849C164.769 75.6028 163.769 76.1925 162.718 76.654C161.692 77.1155 160.641 77.4616 159.564 77.6923C158.513 77.8974 157.513 78 156.564 78H138.528C136.81 78 135.272 77.7821 133.913 77.3462C132.554 76.9104 131.349 76.3335 130.298 75.6156C129.272 74.8721 128.388 74.026 127.644 73.0774C126.926 72.1287 126.336 71.1417 125.875 70.1161C125.413 69.0649 125.067 68.0137 124.837 66.9626C124.632 65.8857 124.529 64.8858 124.529 63.9628V50.4256C124.529 47.8617 124.99 45.6953 125.913 43.9262C126.862 42.1315 128.029 40.6829 129.413 39.5804C130.823 38.4523 132.349 37.6447 133.99 37.1576C135.631 36.6705 137.143 36.4269 138.528 36.4269H156.564V46.426H138.605C137.271 46.426 136.259 46.7721 135.566 47.4643C134.874 48.1309 134.528 49.118 134.528 50.4256V63.8859C134.528 65.2448 134.861 66.2703 135.528 66.9626C136.22 67.6548 137.22 68.0009 138.528 68.0009H156.564C157.923 68.0009 158.936 67.6548 159.603 66.9626C160.269 66.2703 160.603 65.2704 160.603 63.9628V18.8516H170.602V63.9628Z" fill="white"/>
<circle cx="76.0653" cy="86.6381" r="5.62586" fill="#0CB8EE"/>
<circle cx="109.807" cy="86.6381" r="5.62586" fill="#0CB8EE"/>
<path d="M208.487 31.832L182.397 31.7859C179.418 31.7806 177 34.1944 177 37.1737C177 40.1493 179.412 42.5614 182.388 42.5614H208.477C211.44 42.5614 213.842 40.1596 213.842 37.1967C213.842 34.2376 211.446 31.8373 208.487 31.832Z" fill="url(#paint0_linear_301_2)"/>
<path d="M208.487 67.0557L182.397 67.0095C179.418 67.0043 177 69.418 177 72.3973C177 75.3729 179.412 77.7851 182.388 77.7851H208.477C211.44 77.7851 213.842 75.3832 213.842 72.4204C213.842 69.4612 211.446 67.0609 208.487 67.0557Z" fill="url(#paint1_linear_301_2)"/>
<path d="M193.542 50.05L182.508 50.0166C179.469 50.0075 177 52.4688 177 55.5083C177 58.5413 179.459 61 182.492 61H193.525C196.549 61 199 58.5487 199 55.525C199 52.5076 196.559 50.0591 193.542 50.05Z" fill="url(#paint2_linear_301_2)"/>
<defs>
<linearGradient id="paint0_linear_301_2" x1="182.411" y1="37.6332" x2="219.369" y2="36.9425" gradientUnits="userSpaceOnUse">
<stop stop-color="#7B4397"/>
<stop offset="1" stop-color="#FD08D6"/>
</linearGradient>
<linearGradient id="paint1_linear_301_2" x1="182.411" y1="72.8569" x2="219.369" y2="72.1661" gradientUnits="userSpaceOnUse">
<stop stop-color="#7B4397"/>
<stop offset="1" stop-color="#FD08D6"/>
</linearGradient>
<linearGradient id="paint2_linear_301_2" x1="180.231" y1="55.9736" x2="202.305" y2="55.732" gradientUnits="userSpaceOnUse">
<stop stop-color="#7B4397"/>
<stop offset="1" stop-color="#FD08D6"/>
</linearGradient>
</defs>
</svg>
